<svg width="313" height="375" viewBox="0 0 313 375" fill="none" xmlns="http://www.w3.org/2000/svg">
<g clip-path="url(#clip0_180_175)">
<path d="M219 101.474C219 121.351 213.106 140.781 202.063 157.308C191.02 173.836 175.324 186.717 156.96 194.324C138.596 201.93 118.389 203.92 98.8934 200.043C79.3983 196.165 61.4909 186.593 47.4358 172.538C33.3806 158.483 23.8089 140.575 19.9311 121.08C16.0532 101.585 18.0435 81.3779 25.6501 63.014C33.2567 44.65 46.138 28.954 62.6652 17.9109C79.1923 6.86786 98.623 0.973633 118.5 0.973633C145.154 0.973633 170.717 11.562 189.564 30.4094C208.412 49.2568 219 74.8194 219 101.474V101.474Z" fill="#F7931A"/>
<path fill-rule="evenodd" clip-rule="evenodd" d="M89.4281 46.8654L112.525 53.0508L117.687 33.8096L129.235 36.9433L124.274 55.3897L133.694 57.9204L138.664 39.2731L150.413 42.416L145.352 61.1638C145.352 61.1638 164.538 65.4123 169.051 81.0172C173.565 96.6221 159.129 104.817 154.671 105.128C154.671 105.128 171.482 114.347 165.708 132.482C159.933 150.618 142.209 153.861 123.562 149.704L118.5 169.147L106.751 166.004L111.913 146.863L102.594 144.323L97.4315 163.601L85.7735 160.467L90.9447 141.281L67.2358 134.885L73.211 121.619C73.211 121.619 79.8988 123.446 82.4296 124.049C84.9604 124.652 86.5867 122.021 87.2993 119.39C88.0119 116.759 98.7472 73.1508 99.7613 69.5602C100.775 65.9696 100.364 63.1647 96.1067 62.0592C91.8492 60.9537 86.0567 59.2269 86.0567 59.2269L89.4281 46.8654ZM112.726 104.616L106.33 130.043C106.33 130.043 138.043 141.491 142.099 125.383C146.156 109.276 112.726 104.616 112.726 104.616ZM115.668 92.5564L121.944 69.2587C121.944 69.2587 149.098 74.1192 145.754 87.0837C142.41 100.048 126.403 95.078 115.668 92.5564Z" fill="white"/>
</g>
<g clip-path="url(#clip1_180_175)">
<path fill-rule="evenodd" clip-rule="evenodd" d="M237.707 181.974C252.54 181.974 267.041 186.372 279.374 194.613C291.708 202.855 301.321 214.568 306.998 228.272C312.674 241.977 314.159 257.057 311.265 271.605C308.372 286.154 301.229 299.518 290.74 310.007C280.251 320.496 266.887 327.639 252.338 330.533C237.79 333.426 222.71 331.941 209.005 326.265C195.301 320.588 183.587 310.975 175.346 298.641C167.105 286.308 162.707 271.807 162.707 256.974C162.707 237.082 170.608 218.006 184.674 203.941C198.739 189.875 217.815 181.974 237.707 181.974V181.974Z" fill="white"/>
<path fill-rule="evenodd" clip-rule="evenodd" d="M237.707 198.078L257.439 227.56L277.171 257.049L237.707 276.93L198.243 256.974L217.975 227.485L237.707 198.078ZM237.707 284.874L200.432 264.985L237.707 315.869L274.982 264.985L237.707 284.874Z" fill="#343434"/>
<path fill-rule="evenodd" clip-rule="evenodd" d="M237.707 198.078L257.438 227.485L277.17 256.974L237.707 242.076V198.078Z" fill="#343434"/>
<path fill-rule="evenodd" clip-rule="evenodd" d="M237.707 284.874L275.057 264.985L237.707 315.944V284.874Z" fill="#313131"/>
<path fill-rule="evenodd" clip-rule="evenodd" d="M237.707 242.076L277.17 256.973L237.707 276.855V242.076Z" fill="#151515"/>
<path fill-rule="evenodd" clip-rule="evenodd" d="M237.707 198.078L217.975 227.485L198.243 256.974L237.707 242.076V198.078Z" fill="#8C8C8C"/>
<path fill-rule="evenodd" clip-rule="evenodd" d="M237.707 284.874L200.432 264.985L237.707 315.944V284.874Z" fill="#8A8A8A"/>
<path fill-rule="evenodd" clip-rule="evenodd" d="M237.707 242.076L198.243 256.973L237.707 276.855V242.076Z" fill="#353535"/>
</g>
<g clip-path="url(#clip2_180_175)">
<path d="M67 374.974C104.003 374.974 134 344.977 134 307.974C134 270.971 104.003 240.974 67 240.974C29.9969 240.974 0 270.971 0 307.974C0 344.977 29.9969 374.974 67 374.974Z" fill="#172852"/>
<path d="M53.9689 270.916C61.8146 267.982 70.6451 267.975 78.6382 270.387C89.0433 273.616 97.8271 281.469 102.417 291.324C103.683 294.132 104.896 297.06 105.016 300.182C99.1671 296.792 92.7552 294.594 86.3299 292.591C76.0521 288.886 65.2919 286.313 55.5635 281.221C53.2989 279.867 50.4112 278.481 49.7948 275.66C49.5469 273.221 52.1264 271.861 53.9689 270.916Z" fill="#FFD83D"/>
<path d="M30.2842 294.635C32.5555 288.471 36.2807 282.749 41.3392 278.508C42.6256 289.087 47.128 299.311 54.565 307.003C63.4827 316.269 76.1859 321.957 89.1102 321.743C94.2424 321.904 99.2607 320.718 104.266 319.76C99.3411 337.555 79.8374 349.367 61.7675 346.526C50.8599 345.133 40.7898 338.674 34.7129 329.555C27.8588 319.478 26.1302 306.098 30.2842 294.635Z" fill="#FFD83D"/>
<path d="M86.3294 292.59C92.7547 294.594 99.1666 296.791 105.016 300.181L105.411 300.389C105.954 304.469 106.349 308.63 105.625 312.717C102.684 311.471 100.299 309.28 97.8065 307.344C93.0093 303.351 88.1116 298.781 86.3294 292.59Z" fill="#FF6F03"/>
</g>
<defs>
<clipPath id="clip0_180_175">
<rect width="201" height="201" fill="white" transform="translate(18 0.973633)"/>
</clipPath>
<clipPath id="clip1_180_175">
<rect width="150" height="150" fill="white" transform="translate(163 181.974)"/>
</clipPath>
<clipPath id="clip2_180_175">
<rect width="134" height="134" fill="white" transform="translate(0 240.974)"/>
</clipPath>
</defs>
</svg>
