<svg width="253" height="63" viewBox="0 0 253 63" fill="none" xmlns="http://www.w3.org/2000/svg">
<g clip-path="url(#clip0_2_6756)">
<path d="M29.1703 12.1312V4.37793H3.8703V57.6472H29.1703V49.8939C23.9876 49.8939 19.0171 47.9046 15.3524 44.3636C11.6877 40.8227 9.62888 36.0202 9.62888 31.0126C9.62888 26.0049 11.6877 21.2023 15.3524 17.6614C19.0171 14.1205 23.9876 12.1312 29.1703 12.1312Z" fill="#2C3131"/>
<path d="M29.1719 12.1309V49.8936C34.3546 49.8936 39.3251 47.9043 42.9898 44.3633C46.6546 40.8224 48.7133 36.0199 48.7133 31.0123C48.7133 26.0046 46.6546 21.202 42.9898 17.6611C39.3251 14.1202 34.3546 12.1309 29.1719 12.1309Z" fill="#2752E7"/>
<path d="M86.8815 26.7844V47.7041H81.5572V45.0608C80.8775 45.9671 79.9838 46.6845 78.8761 47.2132C77.7936 47.7167 76.6104 47.9684 75.3266 47.9684C73.6902 47.9684 72.2427 47.6286 70.984 46.9489C69.7253 46.244 68.7309 45.2244 68.0009 43.8902C67.296 42.5308 66.9436 40.9197 66.9436 39.0568V26.7844H72.2301V38.3016C72.2301 39.9631 72.6455 41.2469 73.4763 42.1532C74.307 43.0343 75.4398 43.4748 76.8748 43.4748C78.3349 43.4748 79.4803 43.0343 80.311 42.1532C81.1418 41.2469 81.5572 39.9631 81.5572 38.3016V26.7844H86.8815ZM97.3841 30.0319C98.0638 28.9242 98.9449 28.0557 100.027 27.4263C101.135 26.797 102.394 26.4823 103.804 26.4823V32.0332H102.406C100.745 32.0332 99.4862 32.4234 98.6302 33.2038C97.7995 33.9842 97.3841 35.3436 97.3841 37.282V47.7041H92.0975V26.7844H97.3841V30.0319Z" fill="#2752E7"/>
<path d="M106.08 34.4877C106.08 31.8947 106.659 29.5787 107.817 27.5396C109.001 25.4753 110.599 23.8768 112.613 22.744C114.652 21.5859 116.93 21.0069 119.448 21.0069C122.393 21.0069 124.974 21.7622 127.189 23.2726C129.404 24.7831 130.952 26.8725 131.834 29.541H125.754C125.15 28.2823 124.294 27.3382 123.186 26.7089C122.104 26.0795 120.845 25.7648 119.41 25.7648C117.874 25.7648 116.502 26.1299 115.294 26.8599C114.111 27.5648 113.18 28.5718 112.5 29.8808C111.845 31.1899 111.518 32.7255 111.518 34.4877C111.518 36.2247 111.845 37.7603 112.5 39.0945C113.18 40.4036 114.111 41.4232 115.294 42.1532C116.502 42.8581 117.874 43.2105 119.41 43.2105C120.845 43.2105 122.104 42.8958 123.186 42.2665C124.294 41.612 125.15 40.6553 125.754 39.3966H131.834C130.952 42.0903 129.404 44.1923 127.189 45.7028C124.999 47.188 122.418 47.9307 119.448 47.9307C116.93 47.9307 114.652 47.3643 112.613 46.2314C110.599 45.0734 109.001 43.4748 107.817 41.4357C106.659 39.3966 106.08 37.0806 106.08 34.4877ZM141.636 30.0319C142.315 28.9242 143.196 28.0557 144.279 27.4263C145.386 26.797 146.645 26.4823 148.055 26.4823V32.0332H146.658C144.996 32.0332 143.738 32.4234 142.882 33.2038C142.051 33.9842 141.636 35.3436 141.636 37.282V47.7041H136.349V26.7844H141.636V30.0319ZM171.629 26.7844L158.677 57.5975H153.051L157.582 47.1754L149.199 26.7844H155.127L160.527 41.398L166.003 26.7844H171.629ZM72.4189 78.8053C73.0986 77.8487 74.0301 77.0557 75.2133 76.4263C76.4216 75.7718 77.7936 75.4445 79.3292 75.4445C81.1166 75.4445 82.7278 75.8851 84.1627 76.7662C85.6228 77.6473 86.7682 78.906 87.5989 80.5423C88.4549 82.1535 88.8828 84.0289 88.8828 86.1687C88.8828 88.3085 88.4549 90.2092 87.5989 91.8707C86.7682 93.507 85.6228 94.7783 84.1627 95.6845C82.7278 96.5908 81.1166 97.044 79.3292 97.044C77.7936 97.044 76.4342 96.7293 75.251 96.0999C74.093 95.4706 73.149 94.6776 72.4189 93.721V106.673H67.1324V75.7844H72.4189V78.8053ZM83.483 86.1687C83.483 84.91 83.2186 83.8275 82.69 82.9213C82.1865 81.9898 81.5068 81.2849 80.6509 80.8066C79.8201 80.3283 78.9139 80.0892 77.9321 80.0892C76.9755 80.0892 76.0692 80.3409 75.2133 80.8444C74.3825 81.3227 73.7028 82.0276 73.1742 82.959C72.6707 83.8905 72.4189 84.9855 72.4189 86.2442C72.4189 87.503 72.6707 88.598 73.1742 89.5295C73.7028 90.4609 74.3825 91.1784 75.2133 91.6819C76.0692 92.1602 76.9755 92.3993 77.9321 92.3993C78.9139 92.3993 79.8201 92.1476 80.6509 91.6441C81.5068 91.1406 82.1865 90.4232 82.69 89.4917C83.2186 88.5603 83.483 87.4526 83.483 86.1687ZM98.8795 80.1269V90.2469C98.8795 90.9518 99.0431 91.4679 99.3704 91.7951C99.7228 92.0972 100.302 92.2483 101.107 92.2483H103.562V96.7041H100.239C95.7831 96.7041 93.5552 94.5391 93.5552 90.2092V80.1269H91.0629V75.7844H93.5552V70.6111H98.8795V75.7844H103.562V80.1269H98.8795ZM116.654 97.044C114.64 97.044 112.827 96.6034 111.216 95.7223C109.605 94.816 108.333 93.5447 107.402 91.9084C106.496 90.2721 106.043 88.3841 106.043 86.2442C106.043 84.1044 106.508 82.2164 107.44 80.5801C108.396 78.9438 109.693 77.685 111.329 76.804C112.966 75.8977 114.791 75.4445 116.805 75.4445C118.819 75.4445 120.644 75.8977 122.28 76.804C123.916 77.685 125.2 78.9438 126.132 80.5801C127.088 82.2164 127.567 84.1044 127.567 86.2442C127.567 88.3841 127.076 90.2721 126.094 91.9084C125.137 93.5447 123.828 94.816 122.167 95.7223C120.53 96.6034 118.693 97.044 116.654 97.044ZM116.654 92.4371C117.61 92.4371 118.504 92.2105 119.335 91.7574C120.19 91.2791 120.87 90.5742 121.374 89.6428C121.877 88.7113 122.129 87.5785 122.129 86.2442C122.129 84.2555 121.6 82.7325 120.543 81.6751C119.511 80.5927 118.24 80.0514 116.729 80.0514C115.219 80.0514 113.947 80.5927 112.915 81.6751C111.908 82.7325 111.405 84.2555 111.405 86.2442C111.405 88.233 111.896 89.7686 112.877 90.8511C113.884 91.9084 115.143 92.4371 116.654 92.4371Z" fill="#2C3131"/>
<path d="M244.54 25.0659C246.834 25.0659 248.694 23.269 248.694 21.0525C248.694 18.836 246.834 17.0391 244.54 17.0391C242.246 17.0391 240.387 18.836 240.387 21.0525C240.387 23.269 242.246 25.0659 244.54 25.0659Z" fill="#2C3131"/>
</g>
<defs>
<clipPath id="clip0_2_6756">
<rect width="253" height="62.0258" fill="white"/>
</clipPath>
</defs>
</svg>
