<svg width="203" height="186" viewBox="0 0 203 186" fill="none" xmlns="http://www.w3.org/2000/svg">
<rect width="5.46269" height="5.46269" rx="2.58729" fill="#7D97F1"/>
<rect x="21.8516" width="5.46269" height="5.46269" rx="2.58729" fill="#7D97F1"/>
<rect x="43.7021" width="5.46269" height="5.46269" rx="2.58729" fill="#7D97F1"/>
<rect x="65.5518" width="5.46269" height="5.46269" rx="2.58729" fill="#7D97F1"/>
<rect x="87.4023" width="5.46269" height="5.46269" rx="2.58729" fill="#7D97F1"/>
<rect x="109.254" width="5.46269" height="5.46269" rx="2.58729" fill="#7D97F1"/>
<rect x="131.105" width="5.46269" height="5.46269" rx="2.58729" fill="#7D97F1"/>
<rect x="152.956" width="5.46269" height="5.46269" rx="2.58729" fill="#7D97F1"/>
<rect x="174.806" width="5.46269" height="5.46269" rx="2.58729" fill="#7D97F1"/>
<rect x="196.656" width="5.46269" height="5.46269" rx="2.58729" fill="#7D97F1"/>
<rect y="21.8511" width="5.46269" height="5.46269" rx="2.58729" fill="#7D97F1"/>
<rect x="21.8516" y="21.8511" width="5.46269" height="5.46269" rx="2.58729" fill="#7D97F1"/>
<rect x="43.7021" y="21.8511" width="5.46269" height="5.46269" rx="2.58729" fill="#7D97F1"/>
<rect x="65.5518" y="21.8511" width="5.46269" height="5.46269" rx="2.58729" fill="#7D97F1"/>
<rect x="87.4023" y="21.8511" width="5.46269" height="5.46269" rx="2.58729" fill="#7D97F1"/>
<rect x="109.254" y="21.8511" width="5.46269" height="5.46269" rx="2.58729" fill="#7D97F1"/>
<rect x="131.105" y="21.8511" width="5.46269" height="5.46269" rx="2.58729" fill="#7D97F1"/>
<rect x="152.956" y="21.8511" width="5.46269" height="5.46269" rx="2.58729" fill="#7D97F1"/>
<rect x="174.806" y="21.8511" width="5.46269" height="5.46269" rx="2.58729" fill="#7D97F1"/>
<rect x="196.656" y="21.8511" width="5.46269" height="5.46269" rx="2.58729" fill="#7D97F1"/>
<rect y="43.7012" width="5.46269" height="5.46269" rx="2.58729" fill="#7D97F1"/>
<rect x="21.8516" y="43.7012" width="5.46269" height="5.46269" rx="2.58729" fill="#7D97F1"/>
<rect x="43.7021" y="43.7012" width="5.46269" height="5.46269" rx="2.58729" fill="#7D97F1"/>
<rect x="65.5518" y="43.7012" width="5.46269" height="5.46269" rx="2.58729" fill="#7D97F1"/>
<rect x="87.4023" y="43.7012" width="5.46269" height="5.46269" rx="2.58729" fill="#7D97F1"/>
<rect x="109.254" y="43.7012" width="5.46269" height="5.46269" rx="2.58729" fill="#7D97F1"/>
<rect x="131.105" y="43.7012" width="5.46269" height="5.46269" rx="2.58729" fill="#7D97F1"/>
<rect x="152.956" y="43.7012" width="5.46269" height="5.46269" rx="2.58729" fill="#7D97F1"/>
<rect x="174.806" y="43.7012" width="5.46269" height="5.46269" rx="2.58729" fill="#7D97F1"/>
<rect x="196.656" y="43.7012" width="5.46269" height="5.46269" rx="2.58729" fill="#7D97F1"/>
<rect y="65.5527" width="5.46269" height="5.46269" rx="2.58729" fill="#7D97F1"/>
<rect x="21.8516" y="65.5527" width="5.46269" height="5.46269" rx="2.58729" fill="#7D97F1"/>
<rect x="43.7021" y="65.5527" width="5.46269" height="5.46269" rx="2.58729" fill="#7D97F1"/>
<rect x="65.5518" y="65.5527" width="5.46269" height="5.46269" rx="2.58729" fill="#7D97F1"/>
<rect x="87.4023" y="65.5527" width="5.46269" height="5.46269" rx="2.58729" fill="#7D97F1"/>
<rect x="109.254" y="65.5527" width="5.46269" height="5.46269" rx="2.58729" fill="#7D97F1"/>
<rect x="131.105" y="65.5527" width="5.46269" height="5.46269" rx="2.58729" fill="#7D97F1"/>
<rect x="152.956" y="65.5527" width="5.46269" height="5.46269" rx="2.58729" fill="#7D97F1"/>
<rect x="174.806" y="65.5527" width="5.46269" height="5.46269" rx="2.58729" fill="#7D97F1"/>
<rect x="196.656" y="65.5527" width="5.46269" height="5.46269" rx="2.58729" fill="#7D97F1"/>
<rect y="87.4028" width="5.46269" height="5.46269" rx="2.58729" fill="#7D97F1"/>
<rect x="21.8516" y="87.4028" width="5.46269" height="5.46269" rx="2.58729" fill="#7D97F1"/>
<rect x="43.7021" y="87.4028" width="5.46269" height="5.46269" rx="2.58729" fill="#7D97F1"/>
<rect x="65.5518" y="87.4028" width="5.46269" height="5.46269" rx="2.58729" fill="#7D97F1"/>
<rect x="87.4023" y="87.4028" width="5.46269" height="5.46269" rx="2.58729" fill="#7D97F1"/>
<rect x="109.254" y="87.4028" width="5.46269" height="5.46269" rx="2.58729" fill="#7D97F1"/>
<rect x="131.105" y="87.4028" width="5.46269" height="5.46269" rx="2.58729" fill="#7D97F1"/>
<rect x="152.956" y="87.4028" width="5.46269" height="5.46269" rx="2.58729" fill="#7D97F1"/>
<rect x="174.806" y="87.4028" width="5.46269" height="5.46269" rx="2.58729" fill="#7D97F1"/>
<rect x="196.656" y="87.4028" width="5.46269" height="5.46269" rx="2.58729" fill="#7D97F1"/>
<rect y="109.254" width="5.46269" height="5.46269" rx="2.58729" fill="#7D97F1"/>
<rect x="21.8516" y="109.254" width="5.46269" height="5.46269" rx="2.58729" fill="#7D97F1"/>
<rect x="43.7021" y="109.254" width="5.46269" height="5.46269" rx="2.58729" fill="#7D97F1"/>
<rect x="65.5518" y="109.254" width="5.46269" height="5.46269" rx="2.58729" fill="#7D97F1"/>
<rect x="87.4023" y="109.254" width="5.46269" height="5.46269" rx="2.58729" fill="#7D97F1"/>
<rect x="109.254" y="109.254" width="5.46269" height="5.46269" rx="2.58729" fill="#7D97F1"/>
<rect x="131.105" y="109.254" width="5.46269" height="5.46269" rx="2.58729" fill="#7D97F1"/>
<rect x="152.956" y="109.254" width="5.46269" height="5.46269" rx="2.58729" fill="#7D97F1"/>
<rect x="174.806" y="109.254" width="5.46269" height="5.46269" rx="2.58729" fill="#7D97F1"/>
<rect x="196.656" y="109.254" width="5.46269" height="5.46269" rx="2.58729" fill="#7D97F1"/>
<rect y="131.104" width="5.46269" height="5.46269" rx="2.58729" fill="#7D97F1"/>
<rect y="152.179" width="5.46269" height="5.46269" rx="2.58729" fill="#7D97F1"/>
<rect y="173.252" width="5.46269" height="5.46269" rx="2.58729" fill="#7D97F1"/>
<rect x="21.8516" y="131.104" width="5.46269" height="5.46269" rx="2.58729" fill="#7D97F1"/>
<rect x="21.8516" y="152.179" width="5.46269" height="5.46269" rx="2.58729" fill="#7D97F1"/>
<rect x="21.8516" y="173.252" width="5.46269" height="5.46269" rx="2.58729" fill="#7D97F1"/>
<rect x="43.7021" y="131.104" width="5.46269" height="5.46269" rx="2.58729" fill="#7D97F1"/>
<rect x="43.7021" y="152.179" width="5.46269" height="5.46269" rx="2.58729" fill="#7D97F1"/>
<rect x="43.7021" y="173.252" width="5.46269" height="5.46269" rx="2.58729" fill="#7D97F1"/>
<rect x="65.5518" y="131.104" width="5.46269" height="5.46269" rx="2.58729" fill="#7D97F1"/>
<rect x="65.5518" y="152.179" width="5.46269" height="5.46269" rx="2.58729" fill="#7D97F1"/>
<rect x="65.5518" y="173.252" width="5.46269" height="5.46269" rx="2.58729" fill="#7D97F1"/>
<rect x="87.4023" y="131.104" width="5.46269" height="5.46269" rx="2.58729" fill="#7D97F1"/>
<rect x="87.4023" y="152.179" width="5.46269" height="5.46269" rx="2.58729" fill="#7D97F1"/>
<rect x="87.4023" y="173.252" width="5.46269" height="5.46269" rx="2.58729" fill="#7D97F1"/>
<rect x="109.254" y="131.104" width="5.46269" height="5.46269" rx="2.58729" fill="#7D97F1"/>
<rect x="109.254" y="152.179" width="5.46269" height="5.46269" rx="2.58729" fill="#7D97F1"/>
<rect x="109.254" y="173.252" width="5.46269" height="5.46269" rx="2.58729" fill="#7D97F1"/>
<rect x="131.105" y="131.104" width="5.46269" height="5.46269" rx="2.58729" fill="#7D97F1"/>
<rect x="131.105" y="152.179" width="5.46269" height="5.46269" rx="2.58729" fill="#7D97F1"/>
<rect x="131.105" y="173.252" width="5.46269" height="5.46269" rx="2.58729" fill="#7D97F1"/>
<rect x="152.956" y="131.104" width="5.46269" height="5.46269" rx="2.58729" fill="#7D97F1"/>
<rect x="152.956" y="152.179" width="5.46269" height="5.46269" rx="2.58729" fill="#7D97F1"/>
<rect x="152.956" y="173.252" width="5.46269" height="5.46269" rx="2.58729" fill="#7D97F1"/>
<rect x="174.806" y="131.104" width="5.46269" height="5.46269" rx="2.58729" fill="#7D97F1"/>
<rect x="174.806" y="152.179" width="5.46269" height="5.46269" rx="2.58729" fill="#7D97F1"/>
<rect x="174.806" y="173.252" width="5.46269" height="5.46269" rx="2.58729" fill="#7D97F1"/>
<rect x="196.656" y="131.104" width="5.46269" height="5.46269" rx="2.58729" fill="#7D97F1"/>
<rect x="196.656" y="152.179" width="5.46269" height="5.46269" rx="2.58729" fill="#7D97F1"/>
<rect x="196.656" y="173.252" width="5.46269" height="5.46269" rx="2.58729" fill="#7D97F1"/>
</svg>
