<svg width="131" height="22" viewBox="0 0 131 22" fill="none" xmlns="http://www.w3.org/2000/svg">
<g clip-path="url(#clip0_2_5861)">
<path d="M11.9035 0.802734H24.0921C24.0847 0.963948 24.029 1.11921 23.9322 1.24836C23.5196 1.95599 23.1483 2.6925 22.7429 3.40013C22.1693 4.41619 21.6329 5.45081 21.0501 6.46275C20.6808 7.19101 20.2641 7.89657 19.87 8.61246C17.5016 8.61246 15.1333 8.61246 12.7649 8.61246C12.6411 8.61246 12.5183 8.61865 12.3945 8.62587C12.2914 8.89819 12.1201 9.13648 11.9819 9.3923C11.8014 9.68525 11.6549 9.9978 11.4765 10.2908C11.2877 10.6848 11.0267 11.0376 10.8369 11.4306C10.4449 12.0959 10.0787 12.7716 9.69502 13.4441C9.29478 14.1318 8.90349 14.8292 8.52113 15.5361C8.35932 15.7866 8.21025 16.0452 8.07448 16.3108C7.27298 17.7054 6.49727 19.1124 5.69474 20.506C5.62667 20.6558 5.537 20.7948 5.4286 20.9186C4.05667 20.9093 2.68473 20.9186 1.31279 20.9186C1.14382 20.9218 0.975844 20.9454 0.8125 20.9888C0.8125 20.6092 1.06626 20.3049 1.23749 19.9861C1.4438 19.558 1.71922 19.1609 1.92655 18.7318C3.57081 15.7899 5.19754 12.8376 6.83664 9.89362C7.20799 9.25407 7.52674 8.60111 7.90015 7.97394C8.3664 7.14872 8.80068 6.30492 9.28653 5.48898C9.44126 5.14754 9.64963 4.83499 9.81983 4.50181C10.4243 3.42592 11.0174 2.34384 11.6199 1.26795C11.6913 1.09993 11.7869 0.943214 11.9035 0.802734Z" fill="#A9A9A9"/>
<path d="M26.0272 5.13422C26.839 3.71587 27.623 2.28204 28.4461 0.869873H32.8487C32.9129 0.873117 32.9765 0.883144 33.0385 0.899787C32.892 1.12157 32.7693 1.35676 32.6403 1.58782C31.5786 3.4934 30.5199 5.40002 29.4643 7.30766C29.0207 8.0844 28.6081 8.87868 28.1583 9.6513L28.114 9.66677L28.1057 9.76374C26.0358 13.4773 23.9727 17.1935 21.9165 20.9125C17.875 20.9167 13.8331 20.9167 9.79089 20.9125C10.0209 20.4318 10.2932 19.9728 10.5491 19.5055C11.7003 17.3888 12.8814 15.2907 14.016 13.174C16.4993 13.1699 18.9825 13.1699 21.4658 13.174C22.9997 10.5023 24.5005 7.81002 26.0231 5.13422H26.0272Z" fill="#A9A9A9"/>
<path d="M71.463 0.815186V21.157H74.9878V6.85274L81.4173 16.2737L87.7953 6.6289V21.157H91.4231V0.815186H87.5209L81.4431 10.2052L75.2972 0.815186H71.463Z" fill="#A9A9A9"/>
<path d="M54.9761 6.06152H57.2795V21.3282H54.9761V6.06152Z" fill="#A9A9A9"/>
<path d="M54.7781 0.40564H57.4776V2.96693H54.7781V0.40564Z" fill="#A9A9A9"/>
<path d="M61.681 1.68677H64.0876V6.06149H68.8326V8.19367H64.0876V17.2629C64.0834 17.6124 64.1645 17.9576 64.3238 18.2686C64.7312 19.0423 65.8381 19.9603 68.8326 18.8876V20.864C68.8326 20.864 66.099 22.4113 63.6234 21.0022C63.6234 21.0022 62.3938 20.4802 61.877 18.7184C61.7427 18.2464 61.6768 17.7577 61.681 17.267V8.15963L59.652 8.19367V6.06149H61.6975L61.681 1.68677Z" fill="#A9A9A9"/>
<path d="M95.1367 0.815186V21.2942H110.437V17.9933H98.8678V12.5602H109.062V9.31088H98.8502V4.13672H110.318V0.815186H95.1367Z" fill="#A9A9A9"/>
<path d="M111.873 0.815186H116.231L121.234 8.00496L126.198 0.815186H130.556L123.439 10.8025L131 21.2766H126.41L121.252 13.6268L115.845 21.2942H111.486L118.939 10.8932L111.873 0.815186Z" fill="#A9A9A9"/>
<path d="M47.9266 10.6694C47.9266 10.6694 51.2966 9.39748 51.0903 5.73554C51.0903 5.73554 51.0625 2.2139 47.0973 1.12666C46.438 0.950014 45.758 0.862586 45.0755 0.866717H35.5658L35.5916 21.2085H45.8295C45.8295 21.2085 51.8207 21.0796 52.2426 15.7414C52.2426 15.7414 52.6717 12.0104 47.9266 10.6694ZM38.0239 2.96691H44.0935C48.855 2.95041 48.7178 6.30289 48.7178 6.30289C48.789 10.1278 44.4194 10.0504 44.4194 10.0504H38.0239V2.96691ZM45.451 19.0588H38.0239V11.9763H45.125C49.8865 11.9588 49.7494 15.3112 49.7494 15.3112C49.8205 19.1362 45.451 19.0588 45.451 19.0588Z" fill="#A9A9A9"/>
</g>
<defs>
<clipPath id="clip0_2_5861">
<rect width="130.188" height="21.1887" fill="white" transform="translate(0.8125 0.40564)"/>
</clipPath>
</defs>
</svg>
